Going.the.Distance 
http://rapidhdd.com/images/20470728221cdf78104da1a440a6b957b569b0f764c89c.png.jpg

Genre:Comedy | Romance
Language:English
IMDb:http://www.imdb.com/title/tt1322312/
Source:720p.Bluray.x264-CBGB


General
Complete name :Going.the.Distance.BRRip.480p.XviD.Feel-Free
Format : MPEG-4
Format profile : Base Media
Codec ID : mp42
File size : 1.88 GiB
Duration : 1h 42mn
Overall bit rate : 2 628 Kbps
Video #1
ID : 1
Format : MPEG-4 Visual
Format settings, Matrix : Default (H.263)
Codec ID : 20
Duration : 1h 42mn
Bit rate mode : Constant
Bit rate : 2 147 Kbps
Nominal bit rate : 64.0 Kbps
Width : 720 pixels
Height : 304 pixels
Display aspect ratio : 2.35:1
Frame rate mode : Constant
Frame rate : 23.976 fps
Resolution : 24 bits
Colorimetry : 4:2:0
Scan type : Progressive
Bits/(Pixel*Frame) : 0.409
Stream size : 1.54 GiB (82%)
Writing library : XviD 1.2.1 (UTC 2008-12-04)
Audio #2
ID : 2
Format : AAC
Format/Info : Advanced Audio Codec
Format version : Version 4
Format profile : LC
Format settings, SBR : No
Codec ID : 40
Duration : 1h 42mn
Bit rate mode : Constant
Bit rate : 476 Kbps
Nominal bit rate : 480 Kbps
Channel(s) : 6 channels
Channel positions : Front: L C R, Rear: L R, LFE
Sampling rate : 48.0 KHz
Resolution : 16 bits
Stream size : 350 MiB (18%)

Plot:
A romantic comedy centered on a guy and a gal who try to keep their love alive as they shuttle back and forth between New York and San Francisco to see one another


screens 
http://rapidhdd.com/images/271912vlcsnap-2010-11-17-15h31m23s219.png
http://www.rapidhdd.com/images/888222vlcsnap-2010-11-17-15h31m34s73.png
http://www.rapidhdd.com/images/723180vlcsnap-2010-11-17-15h32m13s207.png
http://www.rapidhdd.com/images/551252vlcsnap-2010-11-17-15h32m31s125.png
http://www.rapidhdd.com/images/758123vlcsnap-2010-11-17-15h32m43s254.png
http://www.rapidhdd.com/images/780759vlcsnap-2010-11-17-15h32m56s123.png